<svg xmlns="http://www.w3.org/2000/svg" viewBox="0 0 1024 1024" width="1024" height="1024">
  <path d="M 502,807 L 502,809 L 501,810 L 501,812 L 500,813 L 500,815 L 499,816 L 499,817 L 498,818 L 498,819 L 497,820 L 497,822 L 496,823 L 496,824 L 495,825 L 495,826 L 494,827 L 494,828 L 492,830 L 492,831 L 490,833 L 490,834 L 488,836 L 488,837 L 484,841 L 484,842 L 477,849 L 476,849 L 474,851 L 475,851 L 477,853 L 478,853 L 480,855 L 481,855 L 482,856 L 483,856 L 484,857 L 485,857 L 486,858 L 488,858 L 489,859 L 490,859 L 491,860 L 493,860 L 494,861 L 496,861 L 497,862 L 506,862 L 507,861 L 508,861 L 509,860 L 510,860 L 511,859 L 511,858 L 513,856 L 540,856 L 541,855 L 545,855 L 546,854 L 548,854 L 549,853 L 551,853 L 552,852 L 553,852 L 555,850 L 556,850 L 558,848 L 558,847 L 559,846 L 559,844 L 560,843 L 560,842 L 559,841 L 559,839 L 558,838 L 558,837 L 557,836 L 556,836 L 555,835 L 554,835 L 553,834 L 548,834 L 547,833 L 542,833 L 541,832 L 538,832 L 537,831 L 535,831 L 534,830 L 533,830 L 532,829 L 530,829 L 529,828 L 528,828 L 527,827 L 526,827 L 524,825 L 523,825 L 521,823 L 520,823 L 517,820 L 516,820 L 503,807 Z M 183,353 L 182,354 L 180,354 L 179,355 L 178,355 L 177,356 L 176,356 L 175,357 L 175,360 L 176,361 L 176,362 L 178,364 L 178,365 L 179,366 L 179,367 L 180,368 L 179,369 L 179,370 L 175,374 L 175,375 L 174,376 L 174,377 L 173,378 L 173,379 L 171,381 L 171,383 L 172,384 L 172,386 L 173,387 L 173,389 L 174,390 L 174,391 L 175,392 L 175,394 L 176,395 L 177,395 L 178,394 L 182,394 L 183,393 L 186,393 L 187,392 L 188,392 L 189,393 L 184,398 L 184,399 L 181,402 L 181,403 L 179,405 L 179,408 L 180,409 L 180,410 L 181,411 L 181,412 L 182,413 L 182,414 L 183,415 L 183,416 L 184,417 L 184,418 L 185,419 L 185,420 L 186,421 L 186,422 L 188,424 L 188,425 L 189,426 L 189,427 L 190,428 L 190,429 L 191,430 L 191,431 L 192,432 L 192,433 L 193,434 L 193,435 L 194,436 L 194,437 L 195,438 L 195,439 L 196,440 L 196,441 L 197,442 L 197,443 L 198,444 L 198,445 L 199,446 L 199,447 L 200,448 L 200,449 L 201,450 L 201,451 L 202,452 L 202,453 L 203,454 L 203,455 L 204,456 L 204,457 L 205,458 L 205,459 L 206,460 L 206,461 L 207,462 L 207,463 L 208,464 L 208,465 L 209,466 L 209,467 L 211,469 L 211,470 L 212,471 L 212,472 L 213,473 L 213,474 L 214,475 L 214,476 L 216,478 L 216,479 L 215,480 L 214,480 L 212,482 L 212,483 L 211,484 L 211,489 L 213,491 L 213,492 L 214,492 L 215,493 L 216,493 L 217,494 L 252,494 L 253,495 L 315,495 L 317,497 L 317,499 L 318,500 L 318,502 L 319,503 L 319,505 L 320,506 L 320,508 L 321,509 L 321,511 L 322,512 L 322,514 L 323,515 L 323,517 L 324,518 L 324,520 L 325,521 L 325,523 L 326,524 L 326,526 L 327,527 L 327,528 L 328,529 L 328,531 L 329,532 L 329,534 L 330,535 L 330,536 L 331,537 L 331,539 L 332,540 L 332,542 L 333,543 L 333,544 L 334,545 L 334,547 L 335,548 L 335,550 L 336,551 L 336,553 L 337,554 L 337,558 L 333,562 L 333,563 L 329,567 L 329,568 L 327,570 L 327,571 L 324,574 L 324,575 L 322,577 L 322,578 L 319,581 L 319,582 L 317,584 L 317,585 L 315,587 L 313,585 L 312,585 L 311,584 L 310,584 L 309,583 L 308,583 L 307,582 L 306,582 L 305,581 L 304,581 L 303,580 L 302,580 L 301,579 L 299,579 L 298,578 L 297,578 L 296,577 L 295,577 L 294,576 L 293,576 L 292,575 L 290,575 L 289,574 L 288,574 L 287,573 L 285,573 L 284,572 L 282,572 L 281,571 L 280,571 L 279,570 L 277,570 L 276,569 L 273,569 L 272,568 L 270,568 L 269,567 L 266,567 L 265,566 L 262,566 L 261,565 L 258,565 L 257,564 L 252,564 L 251,563 L 247,563 L 246,562 L 240,562 L 239,561 L 222,561 L 221,560 L 218,560 L 217,561 L 203,561 L 202,562 L 195,562 L 194,563 L 189,563 L 188,564 L 183,564 L 182,565 L 178,565 L 177,566 L 175,566 L 174,567 L 171,567 L 170,568 L 168,568 L 167,569 L 165,569 L 164,570 L 162,570 L 161,571 L 159,571 L 158,572 L 157,572 L 156,573 L 154,573 L 153,574 L 152,574 L 151,575 L 149,575 L 148,576 L 147,576 L 146,577 L 145,577 L 144,578 L 143,578 L 142,579 L 141,579 L 140,580 L 139,580 L 138,581 L 137,581 L 136,582 L 135,582 L 134,583 L 133,583 L 132,584 L 131,584 L 130,585 L 129,585 L 127,587 L 126,587 L 125,588 L 124,588 L 122,590 L 121,590 L 119,592 L 118,592 L 115,595 L 114,595 L 112,597 L 111,597 L 108,600 L 107,600 L 102,605 L 101,605 L 82,624 L 82,625 L 77,630 L 77,631 L 74,634 L 74,635 L 71,638 L 71,639 L 69,641 L 69,642 L 67,644 L 67,645 L 65,647 L 65,648 L 63,650 L 63,651 L 62,652 L 62,653 L 61,654 L 61,655 L 59,657 L 59,658 L 58,659 L 58,660 L 57,661 L 57,662 L 56,663 L 56,664 L 55,665 L 55,666 L 54,667 L 54,668 L 53,669 L 53,670 L 52,671 L 52,673 L 51,674 L 51,675 L 50,676 L 50,678 L 49,679 L 49,680 L 48,681 L 48,683 L 47,684 L 47,686 L 46,687 L 46,689 L 45,690 L 45,692 L 44,693 L 44,695 L 43,696 L 43,699 L 42,700 L 42,703 L 41,704 L 41,707 L 40,708 L 40,711 L 39,712 L 39,716 L 38,717 L 38,721 L 37,722 L 37,727 L 36,728 L 36,735 L 35,736 L 35,768 L 36,769 L 36,778 L 37,779 L 37,785 L 38,786 L 38,790 L 39,791 L 39,795 L 40,796 L 40,799 L 41,800 L 41,803 L 42,804 L 42,807 L 43,808 L 43,810 L 44,811 L 44,814 L 45,815 L 45,817 L 46,818 L 46,820 L 47,821 L 47,823 L 48,824 L 48,825 L 49,826 L 49,828 L 50,829 L 50,830 L 51,831 L 51,833 L 52,834 L 52,835 L 53,836 L 53,837 L 54,838 L 54,839 L 55,840 L 55,841 L 56,842 L 56,843 L 57,844 L 57,845 L 58,846 L 58,847 L 59,848 L 59,849 L 61,851 L 61,852 L 62,853 L 62,854 L 63,855 L 63,856 L 65,858 L 65,859 L 67,861 L 67,862 L 69,864 L 69,865 L 71,867 L 71,868 L 73,870 L 73,871 L 77,875 L 77,876 L 81,880 L 81,881 L 97,897 L 98,897 L 103,902 L 104,902 L 107,905 L 108,905 L 111,908 L 112,908 L 114,910 L 115,910 L 117,912 L 118,912 L 120,914 L 121,914 L 123,916 L 124,916 L 126,918 L 127,918 L 128,919 L 129,919 L 130,920 L 131,920 L 132,921 L 133,921 L 135,923 L 137,923 L 138,924 L 139,924 L 140,925 L 141,925 L 142,926 L 143,926 L 144,927 L 145,927 L 146,928 L 148,928 L 149,929 L 150,929 L 151,930 L 153,930 L 154,931 L 155,931 L 156,932 L 158,932 L 159,933 L 161,933 L 162,934 L 164,934 L 165,935 L 167,935 L 168,936 L 171,936 L 172,937 L 174,937 L 175,938 L 174,939 L 171,939 L 170,940 L 138,940 L 137,941 L 117,941 L 116,942 L 98,942 L 97,943 L 87,943 L 86,944 L 83,944 L 88,944 L 89,945 L 100,945 L 101,946 L 118,946 L 119,947 L 140,947 L 141,948 L 172,948 L 173,949 L 217,949 L 218,950 L 327,950 L 328,951 L 449,951 L 450,952 L 659,952 L 660,951 L 793,951 L 794,950 L 841,950 L 842,949 L 872,949 L 873,948 L 897,948 L 898,947 L 915,947 L 916,946 L 924,946 L 925,945 L 928,945 L 923,945 L 922,944 L 911,944 L 910,943 L 892,943 L 891,942 L 863,942 L 862,941 L 829,941 L 828,940 L 829,939 L 831,939 L 832,938 L 834,938 L 835,937 L 837,937 L 838,936 L 840,936 L 841,935 L 843,935 L 844,934 L 846,934 L 847,933 L 849,933 L 850,932 L 851,932 L 852,931 L 853,931 L 854,930 L 856,930 L 857,929 L 858,929 L 859,928 L 860,928 L 861,927 L 862,927 L 863,926 L 865,926 L 866,925 L 867,925 L 868,924 L 869,924 L 870,923 L 871,923 L 873,921 L 874,921 L 875,920 L 876,920 L 877,919 L 878,919 L 879,918 L 880,918 L 882,916 L 883,916 L 884,915 L 885,915 L 887,913 L 888,913 L 890,911 L 891,911 L 893,909 L 894,909 L 897,906 L 898,906 L 901,903 L 902,903 L 907,898 L 908,898 L 924,882 L 924,881 L 930,875 L 930,874 L 933,871 L 933,870 L 936,867 L 936,866 L 938,864 L 938,863 L 940,861 L 940,860 L 942,858 L 942,857 L 944,855 L 944,854 L 945,853 L 945,852 L 947,850 L 947,849 L 948,848 L 948,847 L 949,846 L 949,845 L 950,844 L 950,843 L 952,841 L 952,840 L 953,839 L 953,838 L 954,837 L 954,836 L 955,835 L 955,833 L 956,832 L 956,831 L 957,830 L 957,829 L 958,828 L 958,827 L 959,826 L 959,824 L 960,823 L 960,821 L 961,820 L 961,819 L 962,818 L 962,816 L 963,815 L 963,813 L 964,812 L 964,810 L 965,809 L 965,807 L 966,806 L 966,803 L 967,802 L 967,799 L 968,798 L 968,795 L 969,794 L 969,790 L 970,789 L 970,785 L 971,784 L 971,778 L 972,777 L 972,768 L 973,767 L 973,737 L 972,736 L 972,727 L 971,726 L 971,721 L 970,720 L 970,716 L 969,715 L 969,711 L 968,710 L 968,707 L 967,706 L 967,703 L 966,702 L 966,699 L 965,698 L 965,696 L 964,695 L 964,693 L 963,692 L 963,689 L 962,688 L 962,687 L 961,686 L 961,684 L 960,683 L 960,681 L 959,680 L 959,679 L 958,678 L 958,676 L 957,675 L 957,674 L 956,673 L 956,672 L 955,671 L 955,670 L 954,669 L 954,668 L 953,667 L 953,665 L 952,664 L 952,663 L 950,661 L 950,660 L 949,659 L 949,658 L 948,657 L 948,656 L 947,655 L 947,654 L 945,652 L 945,651 L 944,650 L 944,649 L 942,647 L 942,646 L 940,644 L 940,643 L 938,641 L 938,640 L 936,638 L 936,637 L 933,634 L 933,633 L 930,630 L 930,629 L 925,624 L 925,623 L 907,605 L 906,605 L 901,600 L 900,600 L 897,597 L 896,597 L 894,595 L 893,595 L 890,592 L 889,592 L 887,590 L 886,590 L 884,588 L 883,588 L 882,587 L 881,587 L 879,585 L 878,585 L 877,584 L 876,584 L 874,582 L 873,582 L 872,581 L 871,581 L 870,580 L 869,580 L 868,579 L 867,579 L 866,578 L 865,578 L 864,577 L 863,577 L 862,576 L 861,576 L 860,575 L 859,575 L 858,574 L 856,574 L 855,573 L 854,573 L 853,572 L 851,572 L 850,571 L 849,571 L 848,570 L 846,570 L 845,569 L 843,569 L 842,568 L 839,568 L 838,567 L 836,567 L 835,566 L 832,566 L 831,565 L 828,565 L 827,564 L 824,564 L 823,563 L 819,563 L 818,562 L 813,562 L 812,561 L 808,561 L 807,560 L 801,560 L 800,559 L 787,559 L 786,558 L 767,558 L 766,559 L 757,559 L 756,560 L 750,560 L 749,561 L 745,561 L 744,562 L 741,562 L 740,563 L 736,563 L 735,564 L 732,564 L 731,565 L 729,565 L 728,566 L 725,566 L 724,567 L 720,567 L 719,568 L 715,568 L 714,567 L 713,567 L 712,566 L 712,570 L 713,571 L 713,572 L 714,573 L 714,575 L 715,576 L 715,577 L 716,578 L 716,580 L 717,581 L 717,582 L 718,583 L 718,584 L 719,585 L 719,587 L 720,588 L 720,589 L 721,590 L 721,591 L 722,592 L 722,594 L 723,595 L 723,596 L 724,597 L 724,598 L 725,599 L 725,601 L 726,602 L 726,603 L 727,604 L 727,605 L 728,606 L 728,608 L 729,609 L 729,610 L 730,611 L 730,612 L 731,613 L 731,614 L 732,615 L 732,616 L 733,617 L 733,618 L 734,619 L 734,620 L 735,621 L 735,622 L 736,622 L 737,621 L 738,621 L 739,620 L 741,620 L 742,619 L 744,619 L 745,618 L 747,618 L 748,617 L 751,617 L 752,616 L 755,616 L 756,615 L 760,615 L 761,614 L 768,614 L 769,613 L 793,613 L 794,614 L 801,614 L 802,615 L 807,615 L 808,616 L 812,616 L 813,617 L 816,617 L 817,618 L 819,618 L 820,619 L 823,619 L 824,620 L 826,620 L 827,621 L 828,621 L 829,622 L 831,622 L 832,623 L 833,623 L 834,624 L 836,624 L 837,625 L 838,625 L 839,626 L 840,626 L 841,627 L 842,627 L 843,628 L 844,628 L 845,629 L 846,629 L 847,630 L 848,630 L 849,631 L 850,631 L 852,633 L 853,633 L 854,634 L 855,634 L 857,636 L 858,636 L 861,639 L 862,639 L 865,642 L 866,642 L 869,645 L 870,645 L 886,661 L 886,662 L 890,666 L 890,667 L 893,670 L 893,671 L 895,673 L 895,674 L 897,676 L 897,677 L 898,678 L 898,679 L 900,681 L 900,682 L 901,683 L 901,684 L 902,685 L 902,686 L 903,687 L 903,688 L 904,689 L 904,690 L 905,691 L 905,692 L 906,693 L 906,694 L 907,695 L 907,697 L 908,698 L 908,699 L 909,700 L 909,702 L 910,703 L 910,705 L 911,706 L 911,708 L 912,709 L 912,711 L 913,712 L 913,715 L 914,716 L 914,719 L 915,720 L 915,724 L 916,725 L 916,730 L 917,731 L 917,739 L 918,740 L 918,761 L 917,762 L 917,771 L 916,772 L 916,777 L 915,778 L 915,781 L 914,782 L 914,786 L 913,787 L 913,790 L 912,791 L 912,793 L 911,794 L 911,796 L 910,797 L 910,799 L 909,800 L 909,802 L 908,803 L 908,804 L 907,805 L 907,807 L 906,808 L 906,809 L 905,810 L 905,811 L 904,812 L 904,813 L 903,814 L 903,815 L 902,816 L 902,817 L 901,818 L 901,819 L 900,820 L 900,821 L 898,823 L 898,824 L 897,825 L 897,826 L 895,828 L 895,829 L 893,831 L 893,832 L 891,834 L 891,835 L 888,838 L 888,839 L 883,844 L 883,845 L 871,857 L 870,857 L 865,862 L 864,862 L 861,865 L 860,865 L 858,867 L 857,867 L 855,869 L 854,869 L 852,871 L 851,871 L 850,872 L 849,872 L 847,874 L 846,874 L 845,875 L 844,875 L 843,876 L 842,876 L 841,877 L 840,877 L 839,878 L 838,878 L 837,879 L 836,879 L 835,880 L 833,880 L 832,881 L 831,881 L 830,882 L 828,882 L 827,883 L 825,883 L 824,884 L 822,884 L 821,885 L 819,885 L 818,886 L 815,886 L 814,887 L 811,887 L 810,888 L 806,888 L 805,889 L 799,889 L 798,890 L 791,890 L 790,891 L 763,891 L 762,890 L 755,890 L 754,889 L 749,889 L 748,888 L 744,888 L 743,887 L 740,887 L 739,886 L 737,886 L 736,885 L 733,885 L 732,884 L 730,884 L 729,883 L 728,883 L 727,882 L 725,882 L 724,881 L 723,881 L 722,880 L 720,880 L 719,879 L 718,879 L 717,878 L 716,878 L 715,877 L 714,877 L 713,876 L 712,876 L 711,875 L 710,875 L 708,873 L 707,873 L 706,872 L 705,872 L 704,871 L 703,871 L 701,869 L 700,869 L 698,867 L 697,867 L 694,864 L 693,864 L 688,859 L 687,859 L 672,844 L 672,843 L 667,838 L 667,837 L 665,835 L 665,834 L 662,831 L 662,830 L 660,828 L 660,827 L 659,826 L 659,825 L 657,823 L 657,822 L 656,821 L 656,820 L 655,819 L 655,818 L 654,817 L 654,816 L 653,815 L 653,814 L 652,813 L 652,812 L 651,811 L 651,810 L 650,809 L 650,808 L 649,807 L 649,805 L 648,804 L 648,803 L 647,802 L 647,800 L 646,799 L 646,797 L 645,796 L 645,794 L 644,793 L 644,791 L 643,790 L 643,787 L 642,786 L 642,783 L 641,782 L 641,778 L 640,777 L 640,772 L 639,771 L 639,764 L 638,763 L 638,736 L 639,735 L 639,728 L 640,727 L 640,723 L 641,722 L 641,718 L 642,717 L 642,714 L 643,713 L 643,711 L 644,710 L 644,708 L 645,707 L 645,705 L 646,704 L 646,702 L 647,701 L 647,700 L 648,699 L 648,697 L 649,696 L 649,695 L 650,694 L 650,693 L 651,692 L 651,691 L 652,690 L 652,689 L 653,688 L 653,687 L 654,686 L 654,685 L 655,684 L 655,683 L 657,681 L 657,680 L 658,679 L 658,678 L 660,676 L 660,675 L 663,672 L 663,671 L 666,668 L 666,667 L 671,662 L 671,661 L 684,648 L 685,648 L 689,644 L 690,644 L 691,643 L 690,642 L 690,641 L 689,640 L 689,639 L 688,638 L 688,637 L 687,636 L 687,635 L 686,634 L 686,633 L 685,632 L 685,631 L 684,630 L 684,629 L 683,628 L 683,627 L 682,626 L 682,625 L 681,624 L 681,623 L 680,622 L 680,621 L 679,620 L 679,619 L 678,618 L 678,617 L 677,616 L 677,615 L 676,614 L 676,613 L 675,612 L 675,611 L 674,610 L 674,609 L 673,608 L 673,607 L 672,606 L 672,605 L 671,604 L 671,603 L 669,601 L 669,600 L 668,599 L 668,598 L 667,597 L 667,596 L 666,595 L 666,594 L 665,594 L 662,597 L 661,597 L 657,601 L 656,601 L 652,605 L 651,605 L 643,613 L 642,613 L 635,620 L 635,621 L 628,628 L 628,629 L 623,634 L 623,635 L 621,637 L 621,638 L 618,641 L 618,642 L 616,644 L 616,645 L 615,646 L 615,647 L 613,649 L 613,650 L 612,651 L 612,652 L 610,654 L 610,655 L 609,656 L 609,657 L 608,658 L 608,659 L 607,660 L 607,661 L 606,662 L 606,663 L 605,664 L 605,665 L 604,666 L 604,667 L 603,668 L 603,669 L 602,670 L 602,671 L 601,672 L 601,674 L 600,675 L 600,676 L 599,677 L 599,679 L 598,680 L 598,681 L 597,682 L 597,684 L 596,685 L 596,687 L 595,688 L 595,690 L 594,691 L 594,693 L 593,694 L 593,696 L 592,697 L 592,699 L 591,700 L 591,703 L 590,704 L 590,707 L 589,708 L 589,712 L 588,713 L 588,717 L 587,718 L 587,723 L 586,724 L 586,731 L 585,732 L 585,740 L 584,741 L 584,769 L 585,770 L 585,776 L 586,777 L 586,783 L 587,784 L 587,788 L 588,789 L 588,794 L 589,795 L 589,798 L 590,799 L 590,803 L 591,804 L 591,806 L 592,807 L 592,810 L 593,811 L 593,813 L 594,814 L 594,815 L 595,816 L 595,818 L 596,819 L 596,821 L 597,822 L 597,823 L 598,824 L 598,825 L 599,826 L 599,828 L 600,829 L 600,830 L 601,831 L 601,832 L 602,833 L 602,834 L 603,835 L 603,837 L 604,838 L 604,839 L 605,840 L 605,841 L 606,842 L 606,843 L 608,845 L 608,846 L 609,847 L 609,848 L 610,849 L 610,850 L 611,851 L 611,852 L 613,854 L 613,855 L 614,856 L 614,857 L 616,859 L 616,860 L 618,862 L 618,863 L 620,865 L 620,866 L 622,868 L 622,869 L 624,871 L 624,872 L 628,876 L 628,877 L 649,898 L 650,898 L 655,903 L 656,903 L 660,907 L 661,907 L 664,910 L 665,910 L 667,912 L 668,912 L 670,914 L 671,914 L 673,916 L 674,916 L 676,918 L 677,918 L 678,919 L 679,919 L 681,921 L 682,921 L 683,922 L 684,922 L 685,923 L 686,923 L 687,924 L 688,924 L 689,925 L 690,925 L 691,926 L 692,926 L 693,927 L 694,927 L 695,928 L 697,928 L 698,929 L 699,929 L 700,930 L 702,930 L 703,931 L 705,931 L 706,932 L 708,932 L 709,933 L 711,933 L 712,934 L 714,934 L 715,935 L 717,935 L 718,936 L 721,936 L 722,937 L 725,937 L 726,938 L 725,939 L 705,939 L 704,938 L 626,938 L 625,937 L 472,937 L 471,936 L 470,937 L 300,937 L 299,938 L 277,938 L 276,937 L 277,936 L 279,936 L 280,935 L 282,935 L 283,934 L 285,934 L 286,933 L 288,933 L 289,932 L 290,932 L 291,931 L 293,931 L 294,930 L 295,930 L 296,929 L 297,929 L 298,928 L 300,928 L 301,927 L 302,927 L 303,926 L 304,926 L 305,925 L 306,925 L 307,924 L 308,924 L 309,923 L 310,923 L 311,922 L 312,922 L 313,921 L 314,921 L 316,919 L 317,919 L 318,918 L 319,918 L 321,916 L 322,916 L 323,915 L 324,915 L 326,913 L 327,913 L 330,910 L 331,910 L 333,908 L 334,908 L 338,904 L 339,904 L 361,882 L 361,881 L 366,876 L 366,875 L 369,872 L 369,871 L 372,868 L 372,867 L 374,865 L 374,864 L 376,862 L 376,861 L 378,859 L 378,858 L 380,856 L 380,855 L 381,854 L 391,854 L 392,855 L 406,855 L 407,856 L 417,856 L 418,857 L 441,857 L 442,856 L 446,856 L 447,855 L 449,855 L 450,854 L 452,854 L 453,853 L 454,853 L 455,852 L 456,852 L 457,851 L 458,851 L 459,850 L 460,850 L 461,849 L 462,849 L 463,848 L 464,848 L 466,846 L 467,846 L 468,845 L 469,845 L 470,844 L 471,844 L 474,841 L 475,841 L 480,836 L 480,835 L 483,832 L 483,831 L 485,829 L 485,828 L 487,826 L 487,825 L 488,824 L 488,823 L 489,822 L 489,821 L 490,820 L 490,819 L 491,818 L 491,817 L 492,816 L 492,814 L 493,813 L 493,811 L 494,810 L 494,807 L 495,806 L 495,800 L 496,799 L 496,787 L 495,786 L 495,781 L 494,780 L 494,776 L 493,775 L 493,773 L 492,772 L 492,770 L 491,769 L 491,767 L 490,766 L 490,765 L 489,764 L 489,763 L 488,762 L 488,761 L 487,760 L 487,759 L 485,757 L 485,756 L 483,754 L 483,753 L 480,750 L 480,749 L 471,740 L 470,740 L 467,737 L 466,737 L 465,736 L 464,736 L 463,735 L 462,735 L 461,734 L 460,734 L 459,733 L 458,733 L 457,732 L 456,732 L 455,731 L 453,731 L 452,730 L 449,730 L 448,729 L 445,729 L 444,728 L 439,728 L 438,727 L 422,727 L 421,728 L 419,726 L 419,722 L 418,721 L 418,717 L 417,716 L 417,712 L 416,711 L 416,707 L 415,706 L 415,703 L 414,702 L 414,699 L 413,698 L 413,696 L 412,695 L 412,692 L 411,691 L 411,689 L 410,688 L 410,685 L 409,684 L 409,682 L 408,681 L 403,686 L 403,687 L 396,694 L 396,695 L 393,698 L 393,699 L 391,701 L 391,702 L 389,704 L 389,705 L 387,707 L 387,708 L 390,711 L 390,712 L 391,713 L 391,714 L 392,715 L 392,716 L 393,717 L 393,719 L 394,720 L 394,722 L 395,723 L 395,725 L 396,726 L 396,729 L 397,730 L 397,734 L 398,735 L 398,740 L 399,741 L 399,746 L 400,747 L 400,750 L 401,751 L 401,754 L 402,755 L 402,757 L 403,758 L 403,760 L 404,761 L 404,762 L 405,763 L 405,764 L 406,765 L 406,766 L 407,767 L 407,768 L 409,770 L 409,771 L 412,774 L 412,775 L 414,777 L 414,778 L 418,782 L 418,783 L 421,786 L 421,787 L 425,791 L 425,792 L 427,794 L 427,795 L 428,796 L 428,797 L 429,798 L 429,805 L 428,806 L 428,808 L 427,809 L 427,810 L 425,812 L 425,813 L 423,815 L 422,815 L 420,817 L 419,817 L 418,818 L 417,818 L 416,819 L 415,819 L 414,820 L 411,820 L 410,821 L 399,821 L 398,820 L 394,820 L 393,819 L 390,819 L 389,818 L 387,818 L 386,817 L 384,817 L 383,816 L 382,816 L 381,815 L 380,815 L 378,813 L 377,813 L 376,812 L 375,812 L 373,810 L 372,810 L 369,807 L 368,807 L 349,788 L 349,787 L 345,783 L 344,783 L 343,784 L 343,785 L 342,786 L 342,789 L 341,790 L 341,793 L 340,794 L 340,797 L 339,798 L 339,808 L 338,809 L 338,812 L 337,813 L 337,815 L 336,816 L 336,818 L 335,819 L 335,820 L 334,821 L 334,822 L 333,823 L 333,824 L 332,825 L 332,826 L 330,828 L 330,829 L 329,830 L 329,831 L 327,833 L 327,834 L 325,836 L 325,837 L 321,841 L 303,841 L 302,840 L 290,840 L 289,839 L 275,839 L 274,838 L 264,838 L 263,837 L 253,837 L 252,836 L 243,836 L 242,835 L 233,835 L 232,834 L 231,834 L 230,833 L 230,832 L 231,831 L 231,822 L 232,821 L 232,820 L 233,819 L 233,818 L 234,817 L 234,816 L 236,814 L 236,813 L 238,811 L 238,810 L 241,807 L 241,806 L 244,803 L 244,802 L 246,800 L 246,799 L 247,798 L 247,797 L 248,796 L 248,793 L 249,792 L 249,789 L 248,788 L 248,787 L 247,786 L 247,785 L 244,782 L 243,782 L 242,781 L 242,780 L 244,778 L 244,777 L 247,774 L 247,773 L 250,770 L 253,770 L 254,771 L 262,771 L 263,772 L 270,772 L 271,773 L 278,773 L 279,774 L 287,774 L 288,775 L 295,775 L 296,776 L 303,776 L 304,777 L 311,777 L 312,778 L 321,778 L 322,779 L 337,779 L 337,777 L 328,768 L 327,768 L 324,765 L 323,765 L 320,762 L 319,762 L 317,760 L 316,760 L 314,758 L 313,758 L 312,757 L 311,757 L 309,755 L 308,755 L 307,754 L 306,754 L 305,753 L 297,753 L 296,752 L 279,752 L 278,751 L 262,751 L 261,750 L 255,750 L 254,749 L 254,745 L 253,744 L 253,742 L 252,741 L 252,739 L 251,738 L 251,737 L 249,735 L 249,734 L 246,731 L 246,730 L 245,729 L 245,727 L 246,726 L 246,725 L 248,723 L 248,722 L 249,721 L 249,720 L 251,718 L 251,717 L 253,715 L 253,714 L 254,713 L 254,712 L 256,710 L 256,709 L 258,707 L 258,706 L 261,703 L 261,702 L 263,700 L 263,699 L 265,697 L 265,696 L 268,693 L 268,692 L 270,690 L 270,689 L 273,686 L 273,685 L 275,683 L 275,682 L 277,680 L 277,679 L 279,677 L 279,676 L 282,673 L 282,672 L 284,670 L 284,669 L 286,667 L 286,666 L 288,664 L 288,663 L 290,661 L 290,660 L 292,658 L 292,657 L 293,656 L 293,655 L 295,653 L 295,652 L 297,650 L 297,649 L 298,648 L 298,647 L 299,646 L 301,646 L 303,648 L 304,648 L 320,664 L 320,665 L 324,669 L 324,670 L 326,672 L 326,673 L 327,673 L 327,672 L 329,670 L 329,669 L 336,662 L 336,661 L 346,651 L 346,650 L 351,645 L 351,644 L 353,642 L 353,641 L 354,640 L 354,639 L 355,638 L 355,637 L 356,636 L 356,634 L 357,633 L 357,624 L 356,623 L 356,622 L 355,621 L 355,620 L 343,608 L 342,608 L 336,602 L 335,602 L 332,599 L 332,597 L 333,596 L 333,595 L 336,592 L 336,591 L 338,589 L 338,588 L 339,587 L 339,586 L 341,584 L 341,583 L 343,581 L 343,580 L 345,578 L 346,579 L 346,581 L 347,582 L 347,583 L 348,584 L 348,585 L 349,586 L 349,588 L 350,589 L 350,590 L 351,591 L 351,593 L 352,594 L 352,595 L 353,596 L 353,598 L 354,599 L 354,600 L 355,601 L 355,602 L 356,603 L 356,605 L 357,606 L 357,607 L 358,608 L 358,610 L 359,611 L 359,612 L 360,613 L 360,614 L 361,615 L 361,616 L 362,617 L 362,619 L 363,620 L 363,621 L 364,622 L 364,623 L 366,625 L 367,625 L 368,624 L 369,624 L 372,621 L 372,620 L 374,618 L 374,617 L 375,616 L 375,615 L 376,614 L 376,613 L 377,612 L 377,609 L 378,608 L 378,606 L 379,605 L 379,603 L 380,602 L 380,601 L 379,600 L 379,597 L 378,596 L 378,594 L 377,593 L 377,591 L 376,590 L 376,589 L 375,588 L 375,586 L 374,585 L 374,583 L 373,582 L 373,580 L 372,579 L 372,577 L 371,576 L 371,574 L 370,573 L 370,571 L 369,570 L 369,568 L 368,567 L 368,566 L 367,565 L 367,563 L 366,562 L 366,560 L 365,559 L 365,557 L 364,556 L 364,554 L 363,553 L 363,552 L 362,551 L 362,549 L 361,548 L 361,546 L 360,545 L 360,542 L 361,541 L 374,541 L 375,542 L 392,542 L 393,543 L 409,543 L 410,544 L 418,544 L 419,545 L 421,545 L 422,546 L 424,546 L 426,544 L 427,544 L 432,539 L 433,539 L 437,535 L 438,535 L 442,531 L 442,530 L 443,529 L 443,528 L 442,528 L 441,527 L 440,527 L 439,526 L 438,526 L 436,524 L 435,524 L 434,523 L 433,523 L 431,521 L 430,521 L 429,520 L 428,520 L 427,519 L 426,519 L 424,517 L 423,517 L 422,516 L 421,516 L 419,514 L 418,514 L 417,513 L 416,513 L 414,511 L 413,511 L 411,509 L 410,509 L 409,508 L 408,508 L 406,506 L 405,506 L 404,505 L 403,505 L 401,503 L 400,503 L 398,501 L 397,501 L 395,499 L 394,499 L 393,498 L 392,498 L 390,496 L 389,496 L 388,495 L 387,495 L 385,493 L 384,493 L 383,492 L 382,492 L 380,490 L 379,490 L 378,489 L 377,489 L 375,487 L 374,487 L 373,486 L 372,486 L 370,484 L 369,484 L 368,483 L 367,483 L 366,482 L 365,482 L 364,481 L 363,481 L 362,480 L 361,480 L 360,479 L 359,479 L 358,478 L 357,478 L 356,477 L 355,477 L 354,476 L 353,476 L 352,475 L 350,475 L 349,474 L 347,474 L 352,479 L 352,480 L 358,486 L 358,487 L 363,492 L 363,493 L 368,498 L 368,499 L 373,504 L 373,505 L 378,510 L 378,511 L 383,516 L 383,517 L 382,518 L 353,518 L 351,516 L 351,515 L 350,514 L 350,513 L 349,512 L 349,510 L 348,509 L 348,507 L 347,506 L 347,504 L 346,503 L 346,502 L 345,501 L 345,499 L 344,498 L 344,496 L 343,495 L 343,494 L 342,493 L 342,491 L 341,490 L 341,488 L 340,487 L 340,485 L 339,484 L 339,482 L 338,481 L 338,479 L 337,478 L 337,476 L 336,475 L 336,473 L 335,472 L 335,471 L 334,470 L 334,468 L 333,467 L 332,467 L 330,465 L 329,465 L 328,464 L 327,464 L 326,463 L 325,463 L 324,462 L 323,462 L 322,461 L 321,461 L 320,460 L 319,460 L 318,459 L 317,459 L 316,458 L 315,458 L 314,457 L 313,457 L 312,456 L 311,456 L 310,455 L 309,455 L 307,453 L 306,453 L 305,452 L 304,452 L 303,451 L 302,451 L 301,450 L 300,450 L 299,449 L 298,449 L 296,447 L 295,447 L 294,446 L 293,446 L 277,430 L 277,429 L 274,426 L 273,426 L 272,425 L 268,425 L 267,426 L 266,426 L 265,427 L 265,428 L 264,429 L 264,430 L 263,431 L 263,433 L 262,434 L 262,436 L 261,437 L 261,440 L 262,441 L 262,443 L 263,444 L 263,445 L 267,449 L 268,449 L 269,450 L 271,450 L 272,451 L 274,451 L 277,454 L 278,454 L 283,459 L 284,459 L 286,461 L 287,461 L 288,462 L 289,462 L 290,463 L 291,463 L 292,464 L 295,464 L 296,465 L 300,465 L 301,466 L 315,466 L 316,467 L 316,471 L 317,472 L 317,477 L 318,478 L 318,479 L 317,480 L 274,480 L 273,479 L 273,476 L 272,475 L 272,471 L 271,470 L 271,468 L 270,467 L 270,465 L 269,464 L 269,463 L 268,462 L 268,461 L 267,460 L 267,459 L 266,458 L 266,457 L 265,456 L 265,455 L 264,454 L 264,453 L 263,452 L 263,451 L 262,450 L 262,449 L 260,447 L 260,446 L 259,445 L 259,444 L 258,443 L 258,442 L 257,441 L 257,440 L 256,439 L 256,438 L 255,437 L 255,436 L 254,435 L 254,434 L 252,432 L 252,431 L 251,430 L 251,429 L 250,428 L 250,427 L 249,426 L 249,425 L 248,424 L 248,423 L 246,421 L 246,420 L 245,419 L 245,418 L 244,417 L 244,416 L 243,415 L 243,414 L 241,412 L 241,411 L 240,410 L 240,409 L 239,408 L 239,407 L 238,406 L 238,405 L 237,404 L 237,403 L 235,401 L 235,400 L 234,399 L 234,398 L 233,397 L 233,396 L 232,395 L 232,394 L 230,392 L 230,391 L 229,390 L 229,389 L 228,388 L 228,387 L 227,386 L 227,385 L 226,384 L 226,383 L 225,382 L 225,381 L 224,380 L 217,380 L 216,381 L 211,381 L 210,382 L 208,382 L 207,383 L 206,383 L 205,384 L 204,384 L 203,383 L 205,381 L 206,381 L 213,374 L 213,373 L 215,371 L 215,370 L 212,367 L 212,366 L 206,360 L 198,360 L 197,361 L 193,361 L 189,357 L 189,356 L 187,354 L 187,353 Z M 756,254 L 755,255 L 753,255 L 751,257 L 750,257 L 749,258 L 749,259 L 747,261 L 747,268 L 748,269 L 748,270 L 753,275 L 753,276 L 754,277 L 754,279 L 753,280 L 753,281 L 752,282 L 752,284 L 751,285 L 751,286 L 750,287 L 750,289 L 749,290 L 749,291 L 748,292 L 748,293 L 750,295 L 750,296 L 753,299 L 753,300 L 755,302 L 755,303 L 758,306 L 758,307 L 760,309 L 761,309 L 762,310 L 764,310 L 765,309 L 766,309 L 767,308 L 768,308 L 770,306 L 771,306 L 772,305 L 773,305 L 776,302 L 777,302 L 779,300 L 780,300 L 791,289 L 791,288 L 793,286 L 793,285 L 795,283 L 795,282 L 796,281 L 796,280 L 797,279 L 797,278 L 798,277 L 798,275 L 799,274 L 799,271 L 798,271 L 795,268 L 794,268 L 792,266 L 791,266 L 790,265 L 789,265 L 788,264 L 785,264 L 784,263 L 772,263 L 771,264 L 765,264 L 764,263 L 764,262 Z M 451,123 L 450,124 L 447,124 L 442,129 L 442,130 L 441,131 L 441,132 L 439,134 L 439,135 L 438,136 L 438,137 L 437,138 L 437,139 L 436,140 L 436,141 L 435,142 L 435,144 L 434,145 L 434,146 L 433,147 L 433,148 L 432,149 L 432,151 L 431,152 L 431,153 L 430,154 L 430,156 L 429,157 L 429,159 L 428,160 L 428,169 L 429,170 L 429,171 L 430,172 L 431,172 L 432,173 L 433,173 L 434,174 L 436,174 L 437,175 L 439,175 L 440,176 L 441,176 L 442,177 L 444,177 L 445,178 L 446,178 L 447,179 L 449,179 L 450,180 L 452,180 L 453,181 L 454,181 L 455,182 L 457,182 L 458,183 L 460,183 L 461,184 L 462,184 L 463,185 L 465,185 L 466,186 L 468,186 L 469,187 L 470,187 L 471,188 L 473,188 L 474,189 L 475,189 L 476,190 L 478,190 L 479,191 L 480,191 L 481,192 L 482,192 L 483,193 L 484,193 L 485,194 L 486,194 L 488,196 L 489,196 L 490,197 L 489,198 L 485,198 L 484,197 L 482,197 L 481,196 L 478,196 L 477,195 L 475,195 L 474,194 L 472,194 L 471,195 L 469,195 L 468,196 L 467,196 L 466,197 L 464,197 L 463,198 L 461,198 L 460,199 L 459,199 L 458,200 L 456,200 L 455,201 L 454,201 L 453,202 L 451,202 L 450,203 L 449,203 L 448,204 L 446,204 L 445,205 L 444,205 L 443,206 L 441,206 L 440,207 L 439,207 L 438,208 L 436,208 L 435,209 L 434,209 L 433,210 L 431,210 L 430,211 L 429,211 L 428,212 L 427,212 L 426,213 L 424,213 L 423,214 L 422,214 L 421,215 L 420,215 L 419,216 L 417,216 L 416,217 L 415,217 L 414,218 L 413,218 L 412,219 L 411,219 L 410,220 L 408,220 L 407,221 L 406,221 L 405,222 L 404,222 L 403,223 L 402,223 L 401,224 L 400,224 L 399,225 L 398,225 L 397,226 L 396,226 L 395,227 L 394,227 L 393,228 L 391,228 L 390,229 L 389,229 L 388,230 L 387,230 L 386,231 L 385,231 L 383,233 L 382,233 L 381,234 L 380,234 L 379,235 L 378,235 L 377,236 L 376,236 L 375,237 L 374,237 L 373,238 L 372,238 L 370,240 L 369,240 L 368,241 L 367,241 L 365,243 L 364,243 L 363,244 L 362,244 L 360,246 L 359,246 L 358,247 L 357,247 L 355,249 L 354,249 L 352,251 L 351,251 L 349,253 L 348,253 L 345,256 L 344,256 L 342,258 L 341,258 L 338,261 L 337,261 L 332,266 L 331,266 L 326,271 L 325,271 L 306,290 L 306,291 L 300,297 L 300,298 L 297,301 L 297,302 L 293,306 L 293,307 L 291,309 L 291,310 L 289,312 L 289,313 L 287,315 L 287,316 L 285,318 L 285,319 L 283,321 L 283,322 L 282,323 L 282,324 L 280,326 L 280,327 L 279,328 L 279,329 L 278,330 L 278,331 L 276,333 L 276,334 L 275,335 L 275,336 L 274,337 L 274,339 L 273,340 L 273,341 L 272,342 L 272,343 L 271,344 L 271,346 L 270,347 L 270,348 L 269,349 L 269,351 L 268,352 L 268,354 L 267,355 L 267,357 L 266,358 L 266,361 L 265,362 L 265,367 L 264,368 L 264,387 L 265,388 L 265,393 L 266,394 L 266,396 L 267,397 L 267,399 L 268,400 L 268,402 L 269,403 L 269,404 L 270,405 L 270,406 L 271,407 L 271,408 L 272,409 L 272,410 L 273,411 L 273,412 L 274,413 L 274,414 L 276,416 L 276,417 L 280,421 L 280,422 L 289,431 L 290,431 L 295,436 L 296,436 L 300,440 L 301,440 L 303,442 L 304,442 L 306,444 L 307,444 L 309,446 L 310,446 L 311,447 L 312,447 L 313,448 L 314,448 L 316,450 L 317,450 L 318,451 L 319,451 L 320,452 L 321,452 L 322,453 L 323,453 L 324,454 L 325,454 L 326,455 L 327,455 L 328,456 L 330,456 L 331,457 L 332,457 L 333,458 L 334,458 L 335,459 L 336,459 L 337,460 L 338,460 L 339,461 L 340,461 L 341,462 L 343,462 L 344,463 L 345,463 L 346,464 L 347,464 L 348,465 L 349,465 L 350,466 L 351,466 L 352,467 L 353,467 L 354,468 L 355,468 L 356,469 L 357,469 L 358,470 L 359,470 L 360,471 L 361,471 L 362,472 L 363,472 L 364,473 L 365,473 L 366,474 L 367,474 L 369,476 L 370,476 L 371,477 L 372,477 L 373,478 L 374,478 L 375,479 L 376,479 L 378,481 L 379,481 L 380,482 L 381,482 L 382,483 L 383,483 L 385,485 L 386,485 L 387,486 L 388,486 L 389,487 L 390,487 L 392,489 L 393,489 L 394,490 L 395,490 L 396,491 L 397,491 L 399,493 L 400,493 L 401,494 L 402,494 L 404,496 L 405,496 L 407,498 L 408,498 L 409,499 L 410,499 L 411,500 L 412,500 L 414,502 L 415,502 L 416,503 L 417,503 L 419,505 L 420,505 L 421,506 L 422,506 L 423,507 L 426,507 L 427,506 L 427,505 L 434,498 L 434,497 L 457,474 L 458,474 L 467,465 L 468,466 L 468,467 L 458,477 L 458,478 L 454,482 L 454,483 L 450,487 L 450,488 L 447,491 L 447,492 L 445,494 L 445,495 L 442,498 L 442,499 L 440,501 L 440,502 L 438,504 L 438,505 L 435,508 L 435,509 L 433,511 L 433,512 L 434,513 L 435,513 L 437,515 L 438,515 L 439,516 L 440,516 L 442,518 L 443,518 L 445,520 L 446,520 L 447,521 L 448,521 L 449,522 L 450,522 L 452,524 L 453,524 L 454,525 L 455,525 L 457,527 L 458,527 L 459,528 L 460,528 L 461,529 L 462,529 L 463,530 L 464,530 L 465,531 L 467,531 L 468,532 L 467,533 L 466,533 L 465,534 L 463,534 L 462,535 L 459,535 L 458,536 L 457,536 L 456,537 L 454,537 L 453,538 L 451,538 L 450,539 L 449,539 L 448,540 L 447,540 L 446,541 L 445,541 L 444,542 L 443,542 L 442,543 L 441,543 L 439,545 L 438,545 L 436,547 L 435,547 L 433,549 L 432,549 L 427,554 L 426,554 L 414,566 L 414,567 L 411,570 L 411,571 L 408,574 L 408,575 L 406,577 L 406,578 L 404,580 L 404,581 L 402,583 L 402,584 L 401,585 L 401,586 L 399,588 L 399,589 L 398,590 L 398,591 L 397,592 L 397,593 L 396,594 L 396,595 L 395,596 L 395,597 L 394,598 L 394,599 L 393,600 L 393,601 L 392,602 L 392,603 L 391,604 L 391,605 L 390,606 L 390,607 L 388,609 L 388,610 L 387,611 L 387,612 L 385,614 L 385,615 L 383,617 L 383,618 L 380,621 L 380,622 L 374,628 L 374,629 L 362,641 L 362,642 L 356,648 L 356,649 L 349,656 L 349,657 L 340,666 L 340,667 L 334,673 L 334,674 L 330,678 L 329,678 L 327,680 L 326,680 L 325,681 L 324,681 L 323,682 L 321,682 L 320,683 L 319,683 L 318,684 L 317,684 L 315,686 L 314,686 L 312,688 L 311,688 L 307,692 L 306,692 L 299,699 L 299,700 L 297,702 L 297,703 L 295,705 L 295,706 L 294,707 L 294,708 L 293,709 L 293,710 L 292,711 L 292,713 L 291,714 L 291,716 L 290,717 L 290,725 L 291,726 L 291,728 L 292,729 L 292,730 L 293,731 L 293,732 L 302,741 L 303,741 L 306,744 L 307,744 L 310,747 L 311,747 L 313,749 L 314,749 L 316,751 L 317,751 L 319,753 L 320,753 L 322,755 L 323,755 L 326,758 L 327,758 L 330,761 L 331,761 L 370,800 L 371,800 L 375,804 L 376,804 L 378,806 L 379,806 L 380,807 L 381,807 L 382,808 L 383,808 L 384,809 L 385,809 L 386,810 L 388,810 L 389,811 L 391,811 L 392,812 L 395,812 L 396,813 L 403,813 L 404,814 L 405,814 L 406,813 L 411,813 L 412,812 L 414,812 L 415,811 L 416,811 L 417,810 L 418,810 L 422,806 L 422,804 L 423,803 L 423,799 L 422,798 L 422,796 L 419,793 L 419,792 L 413,786 L 413,785 L 409,781 L 409,780 L 406,777 L 406,776 L 403,773 L 403,772 L 402,771 L 402,770 L 400,768 L 400,767 L 399,766 L 399,765 L 398,764 L 398,763 L 397,762 L 397,761 L 396,760 L 396,759 L 395,758 L 395,756 L 394,755 L 394,753 L 393,752 L 393,750 L 392,749 L 392,745 L 391,744 L 391,738 L 390,737 L 390,733 L 389,732 L 389,730 L 388,729 L 388,726 L 387,725 L 387,723 L 386,722 L 386,721 L 385,720 L 385,719 L 384,718 L 384,716 L 383,715 L 383,714 L 382,713 L 382,712 L 381,711 L 381,710 L 380,709 L 380,708 L 378,706 L 379,705 L 379,704 L 381,702 L 381,701 L 385,697 L 385,696 L 389,692 L 389,691 L 394,686 L 394,685 L 407,672 L 407,671 L 421,657 L 422,657 L 444,635 L 445,635 L 452,628 L 453,628 L 458,623 L 459,623 L 465,617 L 466,617 L 469,614 L 470,614 L 474,610 L 475,610 L 479,606 L 480,606 L 483,603 L 484,603 L 490,597 L 491,597 L 498,590 L 499,590 L 506,583 L 507,583 L 515,575 L 516,575 L 524,567 L 525,567 L 541,551 L 541,550 L 543,548 L 543,547 L 545,545 L 545,544 L 546,543 L 546,541 L 547,540 L 547,537 L 548,536 L 548,527 L 547,526 L 547,522 L 546,521 L 546,518 L 545,517 L 545,515 L 544,514 L 544,512 L 543,511 L 543,509 L 542,508 L 542,507 L 541,506 L 541,505 L 540,504 L 540,503 L 539,502 L 539,501 L 538,500 L 538,499 L 537,498 L 537,497 L 536,496 L 536,495 L 534,493 L 534,492 L 532,490 L 532,489 L 530,487 L 530,486 L 527,483 L 527,482 L 525,480 L 525,479 L 522,476 L 522,475 L 519,472 L 519,471 L 516,468 L 516,467 L 511,462 L 511,461 L 505,455 L 505,454 L 494,443 L 494,442 L 472,420 L 471,420 L 463,412 L 462,412 L 455,405 L 454,405 L 446,397 L 445,397 L 439,391 L 438,391 L 432,385 L 431,385 L 426,380 L 425,380 L 421,376 L 420,376 L 416,372 L 415,372 L 411,368 L 410,368 L 406,364 L 405,364 L 402,361 L 401,361 L 397,357 L 396,357 L 393,354 L 392,354 L 389,351 L 388,351 L 385,348 L 384,348 L 382,346 L 381,346 L 379,344 L 378,344 L 375,341 L 374,341 L 372,339 L 371,339 L 369,337 L 368,337 L 365,334 L 366,333 L 367,333 L 368,334 L 369,334 L 370,335 L 372,335 L 373,336 L 374,336 L 375,337 L 376,337 L 377,338 L 378,338 L 379,339 L 380,339 L 381,340 L 382,340 L 383,341 L 384,341 L 386,343 L 387,343 L 389,345 L 390,345 L 391,346 L 392,346 L 394,348 L 395,348 L 397,350 L 398,350 L 400,352 L 401,352 L 404,355 L 405,355 L 408,358 L 409,358 L 411,360 L 412,360 L 415,363 L 416,363 L 418,365 L 419,365 L 422,368 L 423,368 L 425,370 L 426,370 L 428,372 L 429,372 L 430,373 L 433,373 L 434,372 L 436,372 L 437,371 L 440,371 L 441,370 L 443,370 L 444,369 L 446,369 L 447,368 L 450,368 L 451,367 L 454,367 L 455,366 L 457,366 L 458,365 L 461,365 L 462,364 L 465,364 L 466,363 L 468,363 L 469,362 L 472,362 L 473,361 L 476,361 L 477,360 L 480,360 L 481,359 L 484,359 L 485,358 L 488,358 L 489,357 L 492,357 L 493,356 L 496,356 L 497,355 L 500,355 L 501,354 L 504,354 L 505,353 L 508,353 L 509,352 L 512,352 L 513,351 L 516,351 L 517,350 L 520,350 L 521,349 L 525,349 L 526,348 L 529,348 L 530,347 L 533,347 L 534,346 L 535,346 L 534,345 L 534,344 L 533,343 L 533,342 L 532,341 L 532,339 L 531,338 L 531,337 L 530,336 L 530,335 L 529,334 L 529,333 L 528,332 L 528,331 L 527,330 L 527,329 L 526,328 L 526,327 L 525,326 L 525,325 L 524,324 L 524,322 L 523,321 L 523,320 L 522,319 L 522,318 L 521,317 L 521,316 L 520,315 L 520,314 L 519,313 L 519,312 L 518,311 L 518,310 L 517,309 L 517,308 L 516,307 L 516,306 L 515,305 L 515,304 L 514,303 L 514,302 L 513,301 L 513,300 L 512,299 L 512,298 L 511,297 L 511,296 L 510,295 L 510,294 L 511,293 L 514,296 L 514,297 L 516,299 L 516,300 L 519,303 L 519,304 L 521,306 L 521,307 L 523,309 L 523,310 L 525,312 L 525,313 L 527,315 L 527,316 L 528,317 L 528,318 L 530,320 L 530,321 L 531,322 L 531,323 L 533,325 L 533,326 L 534,327 L 534,328 L 535,329 L 535,330 L 536,331 L 536,332 L 537,333 L 537,334 L 538,335 L 538,337 L 539,338 L 539,339 L 540,340 L 540,341 L 541,342 L 541,343 L 542,344 L 542,346 L 543,347 L 543,348 L 544,349 L 544,350 L 545,351 L 545,352 L 546,353 L 546,354 L 547,355 L 547,356 L 548,357 L 548,359 L 549,360 L 549,361 L 550,362 L 550,363 L 551,364 L 551,365 L 552,366 L 552,367 L 553,368 L 553,369 L 554,370 L 554,371 L 556,373 L 556,374 L 557,375 L 557,376 L 558,377 L 558,378 L 559,379 L 559,380 L 560,381 L 560,382 L 562,384 L 562,385 L 563,386 L 563,387 L 565,389 L 565,390 L 566,391 L 566,392 L 567,393 L 567,394 L 569,396 L 569,397 L 571,399 L 571,400 L 572,401 L 572,402 L 574,404 L 574,405 L 576,407 L 576,408 L 578,410 L 578,411 L 580,413 L 580,414 L 583,417 L 583,418 L 586,421 L 586,422 L 588,424 L 588,425 L 592,429 L 592,430 L 595,433 L 595,434 L 599,438 L 599,439 L 604,444 L 604,445 L 615,456 L 616,456 L 617,457 L 618,457 L 619,458 L 634,458 L 635,457 L 652,457 L 653,456 L 663,456 L 664,455 L 669,455 L 670,454 L 675,454 L 676,453 L 680,453 L 681,452 L 684,452 L 685,451 L 688,451 L 689,450 L 692,450 L 693,449 L 695,449 L 696,448 L 699,448 L 700,447 L 702,447 L 703,446 L 706,446 L 707,445 L 709,445 L 710,444 L 712,444 L 713,443 L 715,443 L 716,442 L 718,442 L 719,441 L 722,441 L 723,440 L 725,440 L 726,439 L 728,439 L 729,438 L 731,438 L 732,437 L 734,437 L 735,436 L 737,436 L 738,435 L 740,435 L 741,434 L 744,434 L 745,433 L 747,433 L 748,432 L 750,432 L 751,431 L 754,431 L 755,430 L 758,430 L 759,429 L 762,429 L 763,428 L 766,428 L 767,427 L 771,427 L 772,426 L 776,426 L 777,425 L 782,425 L 783,424 L 804,424 L 805,425 L 808,425 L 809,426 L 811,426 L 812,427 L 813,427 L 814,428 L 815,428 L 816,429 L 816,431 L 814,433 L 814,434 L 812,436 L 812,437 L 810,439 L 810,440 L 803,447 L 802,447 L 799,450 L 798,450 L 796,452 L 795,452 L 794,453 L 793,453 L 792,454 L 791,454 L 790,455 L 788,455 L 787,456 L 784,456 L 783,457 L 780,457 L 779,458 L 774,458 L 773,459 L 766,459 L 765,460 L 747,460 L 746,459 L 716,459 L 715,458 L 676,458 L 675,459 L 666,459 L 665,460 L 660,460 L 659,461 L 654,461 L 653,462 L 648,462 L 647,463 L 641,463 L 640,464 L 636,464 L 635,465 L 630,465 L 629,466 L 628,466 L 623,471 L 623,473 L 622,474 L 622,478 L 623,479 L 623,481 L 628,486 L 628,492 L 629,493 L 629,498 L 628,499 L 626,499 L 625,498 L 545,498 L 545,499 L 546,500 L 546,501 L 547,502 L 547,504 L 548,505 L 548,506 L 549,507 L 549,510 L 550,511 L 550,513 L 551,514 L 551,516 L 552,517 L 552,521 L 553,522 L 553,531 L 557,531 L 558,530 L 569,530 L 570,529 L 592,529 L 593,528 L 612,528 L 613,527 L 630,527 L 631,526 L 636,526 L 637,527 L 637,529 L 631,535 L 631,536 L 622,545 L 622,546 L 616,552 L 616,553 L 609,560 L 609,561 L 603,567 L 603,568 L 596,575 L 596,576 L 590,582 L 590,583 L 584,589 L 584,590 L 578,596 L 578,597 L 573,602 L 573,603 L 567,609 L 567,610 L 560,617 L 560,618 L 553,625 L 553,626 L 547,632 L 547,633 L 541,639 L 541,640 L 535,646 L 535,647 L 529,653 L 529,654 L 523,660 L 523,661 L 517,667 L 517,668 L 511,674 L 511,675 L 503,683 L 503,684 L 496,691 L 496,692 L 486,702 L 486,703 L 473,716 L 473,717 L 471,719 L 470,718 L 470,716 L 471,715 L 471,712 L 472,711 L 472,709 L 473,708 L 473,706 L 474,705 L 474,703 L 475,702 L 475,700 L 476,699 L 476,697 L 477,696 L 477,694 L 478,693 L 478,691 L 479,690 L 479,688 L 480,687 L 480,685 L 481,684 L 481,682 L 482,681 L 482,679 L 483,678 L 483,676 L 484,675 L 484,673 L 485,672 L 485,671 L 486,670 L 486,668 L 487,667 L 487,665 L 488,664 L 488,662 L 489,661 L 489,659 L 490,658 L 490,656 L 491,655 L 491,653 L 492,652 L 492,651 L 493,650 L 493,648 L 494,647 L 494,645 L 495,644 L 495,642 L 496,641 L 496,639 L 497,638 L 497,636 L 498,635 L 498,633 L 499,632 L 499,631 L 500,630 L 500,628 L 501,627 L 501,625 L 502,624 L 502,622 L 503,621 L 503,618 L 504,617 L 504,615 L 505,614 L 505,612 L 506,611 L 506,609 L 507,608 L 507,606 L 508,605 L 508,603 L 509,602 L 509,599 L 510,598 L 510,597 L 511,596 L 511,594 L 512,593 L 512,591 L 513,590 L 512,590 L 508,594 L 507,594 L 502,599 L 501,599 L 496,604 L 495,604 L 490,609 L 489,609 L 485,613 L 484,613 L 481,616 L 480,616 L 476,620 L 475,620 L 471,624 L 470,624 L 466,628 L 465,628 L 461,632 L 460,632 L 456,636 L 455,636 L 450,641 L 449,641 L 443,647 L 442,647 L 434,655 L 433,655 L 421,667 L 421,668 L 420,669 L 422,669 L 423,668 L 425,668 L 426,669 L 426,677 L 425,678 L 425,696 L 424,697 L 424,704 L 425,705 L 425,719 L 431,719 L 432,720 L 439,720 L 440,721 L 444,721 L 445,722 L 448,722 L 449,723 L 452,723 L 453,724 L 454,724 L 455,725 L 457,725 L 458,726 L 459,726 L 460,727 L 461,727 L 462,728 L 463,728 L 464,729 L 465,729 L 466,730 L 467,730 L 468,731 L 469,731 L 471,733 L 472,733 L 475,736 L 476,736 L 487,747 L 487,748 L 489,750 L 489,751 L 491,753 L 491,754 L 492,755 L 492,756 L 493,757 L 494,756 L 494,755 L 498,751 L 498,750 L 503,745 L 503,744 L 509,738 L 509,737 L 516,730 L 516,729 L 521,724 L 521,723 L 527,717 L 527,716 L 532,711 L 532,710 L 537,705 L 537,704 L 543,698 L 543,697 L 548,692 L 548,691 L 553,686 L 553,685 L 560,678 L 560,677 L 567,670 L 567,669 L 574,662 L 574,661 L 581,654 L 581,653 L 590,644 L 590,643 L 601,632 L 601,631 L 613,619 L 613,618 L 624,607 L 624,606 L 638,592 L 638,591 L 654,575 L 654,574 L 661,567 L 664,570 L 664,571 L 665,572 L 665,573 L 666,574 L 666,575 L 667,576 L 667,577 L 668,578 L 668,580 L 669,581 L 669,582 L 670,583 L 670,584 L 671,585 L 671,586 L 672,587 L 672,589 L 673,590 L 673,591 L 674,592 L 674,593 L 675,594 L 675,595 L 676,596 L 676,597 L 677,598 L 677,599 L 678,600 L 678,601 L 679,602 L 679,603 L 680,604 L 680,605 L 681,606 L 681,607 L 682,608 L 682,609 L 683,610 L 683,611 L 684,612 L 684,613 L 685,614 L 685,615 L 687,617 L 687,618 L 688,619 L 688,620 L 689,621 L 689,622 L 690,623 L 690,624 L 691,625 L 691,626 L 693,628 L 693,629 L 694,630 L 694,631 L 695,632 L 695,633 L 697,635 L 697,636 L 698,637 L 698,638 L 700,640 L 700,641 L 701,642 L 701,643 L 703,645 L 703,646 L 704,647 L 704,648 L 706,650 L 706,651 L 708,653 L 708,654 L 709,655 L 709,656 L 711,658 L 711,659 L 712,660 L 712,661 L 714,663 L 714,664 L 715,665 L 715,666 L 717,668 L 717,669 L 719,671 L 719,672 L 720,673 L 720,674 L 722,676 L 722,677 L 723,678 L 723,679 L 725,681 L 725,682 L 726,683 L 726,684 L 728,686 L 728,687 L 729,688 L 729,689 L 730,690 L 730,691 L 732,693 L 732,694 L 733,695 L 733,696 L 735,698 L 735,699 L 736,700 L 736,701 L 738,703 L 738,704 L 739,705 L 739,706 L 740,707 L 740,708 L 742,710 L 742,711 L 743,712 L 743,713 L 744,714 L 744,715 L 745,716 L 745,717 L 747,719 L 747,720 L 748,721 L 748,722 L 749,723 L 749,724 L 751,726 L 751,727 L 752,728 L 752,729 L 753,730 L 753,731 L 754,732 L 754,733 L 755,734 L 755,735 L 756,736 L 756,737 L 758,739 L 758,740 L 759,741 L 759,742 L 760,743 L 759,744 L 759,754 L 760,755 L 760,758 L 761,759 L 761,761 L 762,762 L 762,763 L 764,765 L 764,766 L 767,769 L 768,769 L 769,770 L 770,770 L 771,771 L 772,771 L 773,772 L 784,772 L 785,771 L 787,771 L 789,769 L 790,769 L 795,764 L 795,763 L 796,762 L 796,761 L 797,760 L 797,757 L 798,756 L 798,750 L 797,749 L 797,747 L 796,746 L 796,744 L 794,742 L 794,741 L 790,737 L 789,737 L 788,736 L 787,736 L 786,735 L 784,735 L 783,734 L 781,734 L 780,733 L 779,733 L 778,732 L 778,731 L 777,730 L 777,729 L 776,728 L 776,727 L 775,726 L 775,725 L 774,724 L 774,723 L 773,722 L 773,721 L 772,720 L 772,719 L 771,718 L 771,717 L 770,716 L 770,715 L 769,714 L 769,713 L 768,712 L 768,711 L 767,710 L 767,708 L 766,707 L 766,706 L 765,705 L 765,704 L 764,703 L 764,702 L 763,701 L 763,700 L 762,699 L 762,698 L 761,697 L 761,696 L 760,695 L 760,694 L 759,693 L 759,692 L 758,691 L 758,690 L 757,689 L 757,687 L 756,686 L 756,685 L 755,684 L 755,683 L 754,682 L 754,681 L 753,680 L 753,679 L 752,678 L 752,677 L 751,676 L 751,675 L 750,674 L 750,673 L 749,672 L 749,670 L 748,669 L 748,668 L 747,667 L 747,666 L 746,665 L 746,664 L 745,663 L 745,662 L 744,661 L 744,660 L 743,659 L 743,658 L 742,657 L 742,656 L 741,655 L 741,653 L 740,652 L 740,651 L 739,650 L 739,649 L 738,648 L 738,647 L 737,646 L 737,645 L 736,644 L 736,643 L 735,642 L 735,641 L 734,640 L 734,639 L 733,638 L 733,637 L 732,636 L 732,635 L 731,634 L 731,632 L 730,631 L 730,630 L 729,629 L 729,628 L 728,627 L 728,626 L 727,625 L 727,624 L 726,623 L 726,621 L 725,620 L 725,619 L 724,618 L 724,617 L 723,616 L 723,615 L 722,614 L 722,613 L 721,612 L 721,610 L 720,609 L 720,608 L 719,607 L 719,606 L 718,605 L 718,604 L 717,603 L 717,601 L 716,600 L 716,599 L 715,598 L 715,597 L 714,596 L 714,595 L 713,594 L 713,592 L 712,591 L 712,590 L 711,589 L 711,588 L 710,587 L 710,586 L 709,585 L 709,583 L 708,582 L 708,581 L 707,580 L 707,579 L 706,578 L 706,576 L 705,575 L 705,574 L 704,573 L 704,572 L 703,571 L 703,570 L 702,569 L 702,567 L 701,566 L 701,565 L 700,564 L 700,563 L 699,562 L 699,561 L 698,560 L 698,558 L 697,557 L 697,556 L 696,555 L 696,554 L 695,553 L 695,552 L 694,551 L 694,549 L 693,548 L 693,547 L 692,546 L 692,545 L 691,544 L 691,543 L 690,542 L 690,541 L 689,540 L 689,538 L 688,537 L 688,536 L 687,535 L 687,534 L 686,533 L 686,532 L 685,531 L 685,530 L 684,529 L 684,527 L 683,526 L 683,525 L 682,524 L 682,523 L 681,522 L 681,521 L 680,520 L 680,518 L 679,517 L 679,516 L 678,515 L 678,514 L 677,513 L 677,512 L 676,511 L 676,510 L 675,509 L 675,507 L 674,506 L 674,505 L 673,504 L 673,503 L 672,502 L 672,501 L 671,500 L 671,499 L 670,498 L 670,496 L 669,495 L 669,494 L 668,493 L 668,492 L 667,491 L 667,490 L 668,489 L 672,489 L 673,488 L 721,488 L 722,489 L 723,488 L 724,489 L 725,488 L 726,489 L 727,489 L 735,497 L 736,497 L 737,498 L 738,498 L 739,499 L 742,499 L 743,500 L 829,500 L 830,499 L 832,499 L 833,498 L 835,498 L 836,497 L 838,497 L 839,496 L 840,496 L 841,495 L 842,495 L 843,494 L 844,494 L 845,493 L 846,493 L 848,491 L 849,491 L 850,490 L 851,490 L 852,491 L 852,492 L 853,493 L 853,494 L 854,495 L 854,496 L 855,497 L 855,498 L 856,499 L 856,504 L 855,505 L 855,506 L 854,507 L 854,508 L 853,509 L 853,510 L 847,516 L 846,516 L 844,518 L 843,518 L 842,519 L 841,519 L 840,520 L 839,520 L 837,522 L 836,522 L 835,523 L 833,523 L 832,524 L 831,524 L 830,525 L 829,525 L 828,526 L 827,526 L 826,527 L 824,527 L 823,528 L 822,528 L 821,529 L 819,529 L 818,530 L 817,530 L 816,531 L 815,531 L 814,532 L 813,532 L 812,533 L 811,533 L 807,537 L 819,537 L 820,536 L 824,536 L 825,535 L 827,535 L 828,534 L 830,534 L 831,533 L 833,533 L 834,532 L 836,532 L 837,531 L 839,531 L 840,530 L 842,530 L 843,529 L 845,529 L 846,528 L 847,528 L 848,527 L 849,527 L 850,526 L 851,526 L 853,524 L 854,524 L 856,522 L 857,522 L 864,515 L 864,514 L 866,512 L 866,511 L 867,510 L 867,509 L 868,508 L 868,507 L 869,506 L 869,504 L 870,503 L 870,493 L 869,492 L 869,489 L 870,488 L 870,487 L 872,485 L 872,484 L 873,483 L 873,482 L 874,481 L 874,472 L 873,471 L 873,470 L 862,459 L 861,459 L 860,458 L 859,458 L 858,457 L 855,457 L 854,458 L 852,458 L 850,460 L 849,460 L 847,462 L 846,462 L 843,465 L 842,465 L 839,468 L 838,468 L 835,471 L 834,471 L 831,474 L 830,474 L 829,475 L 828,475 L 827,476 L 795,476 L 794,477 L 777,477 L 776,476 L 777,475 L 780,475 L 781,474 L 782,474 L 783,473 L 786,473 L 787,472 L 788,472 L 789,471 L 791,471 L 792,470 L 794,470 L 795,469 L 796,469 L 797,468 L 798,468 L 799,467 L 800,467 L 801,466 L 802,466 L 803,465 L 804,465 L 805,464 L 806,464 L 807,463 L 808,463 L 810,461 L 811,461 L 813,459 L 814,459 L 817,456 L 818,456 L 825,449 L 825,448 L 828,445 L 828,444 L 831,441 L 831,440 L 832,439 L 832,438 L 834,436 L 834,435 L 835,434 L 835,433 L 836,432 L 836,431 L 838,429 L 838,428 L 839,427 L 839,426 L 841,424 L 841,423 L 846,418 L 847,418 L 849,416 L 850,416 L 858,408 L 858,407 L 861,404 L 861,403 L 863,401 L 863,400 L 865,398 L 865,397 L 867,395 L 867,394 L 870,391 L 870,390 L 872,388 L 872,387 L 874,385 L 874,384 L 876,382 L 876,381 L 878,379 L 878,378 L 880,376 L 880,375 L 883,372 L 883,371 L 885,369 L 885,368 L 887,366 L 887,365 L 889,363 L 889,362 L 890,361 L 890,360 L 891,359 L 891,358 L 892,357 L 892,356 L 893,355 L 893,349 L 892,348 L 892,347 L 887,342 L 886,342 L 885,341 L 884,341 L 883,340 L 881,340 L 880,339 L 878,339 L 877,340 L 875,340 L 874,341 L 873,341 L 870,344 L 853,327 L 853,326 L 829,302 L 829,301 L 815,287 L 814,287 L 813,286 L 812,286 L 811,285 L 809,285 L 808,284 L 803,284 L 802,285 L 800,285 L 799,286 L 798,286 L 796,288 L 795,288 L 781,302 L 781,303 L 778,306 L 778,307 L 776,309 L 776,310 L 775,311 L 775,312 L 774,313 L 774,314 L 773,315 L 773,317 L 772,318 L 772,321 L 774,323 L 774,324 L 777,327 L 777,328 L 779,330 L 779,331 L 783,335 L 783,336 L 790,343 L 790,344 L 816,370 L 815,371 L 812,371 L 811,370 L 800,370 L 799,371 L 796,371 L 795,372 L 793,372 L 792,373 L 790,373 L 789,374 L 787,374 L 786,375 L 784,375 L 783,376 L 782,376 L 781,377 L 779,377 L 778,378 L 777,378 L 776,379 L 774,379 L 773,380 L 772,380 L 771,381 L 770,381 L 769,382 L 767,382 L 766,383 L 765,383 L 764,384 L 763,384 L 762,385 L 760,385 L 759,386 L 757,386 L 756,387 L 753,387 L 752,388 L 749,388 L 748,389 L 743,389 L 742,390 L 736,390 L 735,391 L 724,391 L 723,392 L 674,392 L 673,391 L 659,391 L 658,390 L 643,390 L 641,388 L 641,387 L 640,386 L 640,384 L 639,383 L 639,380 L 638,379 L 638,377 L 637,376 L 637,373 L 636,372 L 636,370 L 635,369 L 635,367 L 634,366 L 634,364 L 633,363 L 633,361 L 632,360 L 632,358 L 631,357 L 631,355 L 630,354 L 630,352 L 629,351 L 629,349 L 628,348 L 628,347 L 627,346 L 627,344 L 626,343 L 626,341 L 625,340 L 625,339 L 624,338 L 624,336 L 623,335 L 623,334 L 622,333 L 622,332 L 621,331 L 621,330 L 620,329 L 620,327 L 619,326 L 619,325 L 617,323 L 617,322 L 616,321 L 616,320 L 615,319 L 615,318 L 614,317 L 614,316 L 613,315 L 613,305 L 612,304 L 612,292 L 611,291 L 611,284 L 610,283 L 610,279 L 609,278 L 609,273 L 608,272 L 608,269 L 607,268 L 607,265 L 606,264 L 606,261 L 605,260 L 605,258 L 604,257 L 604,256 L 603,255 L 603,253 L 602,252 L 602,251 L 601,250 L 601,249 L 602,248 L 604,250 L 604,251 L 606,253 L 606,254 L 608,256 L 608,257 L 609,258 L 609,259 L 610,260 L 610,261 L 611,262 L 611,263 L 612,264 L 612,265 L 613,266 L 613,268 L 614,269 L 614,271 L 615,272 L 615,274 L 616,275 L 616,278 L 617,279 L 617,283 L 618,284 L 618,290 L 619,291 L 619,305 L 620,306 L 620,315 L 621,316 L 621,317 L 622,318 L 622,319 L 623,320 L 623,321 L 624,322 L 624,323 L 625,324 L 625,325 L 626,326 L 626,327 L 627,328 L 627,329 L 628,330 L 628,331 L 629,332 L 629,334 L 630,335 L 630,337 L 631,338 L 631,339 L 632,340 L 632,342 L 633,343 L 633,345 L 634,346 L 634,348 L 635,349 L 635,352 L 636,353 L 636,354 L 637,355 L 637,357 L 638,357 L 638,348 L 639,347 L 639,338 L 640,337 L 640,307 L 639,306 L 639,298 L 638,297 L 638,290 L 637,289 L 637,284 L 636,283 L 636,280 L 635,279 L 635,277 L 636,276 L 637,277 L 649,277 L 650,276 L 653,276 L 654,275 L 656,275 L 657,274 L 658,274 L 660,272 L 661,272 L 667,266 L 667,265 L 669,263 L 669,262 L 670,261 L 670,259 L 671,258 L 671,254 L 672,253 L 688,269 L 689,269 L 692,272 L 693,272 L 694,273 L 695,273 L 696,274 L 697,274 L 698,275 L 699,275 L 700,276 L 702,276 L 703,277 L 706,277 L 707,278 L 721,278 L 722,277 L 724,277 L 725,276 L 726,276 L 727,275 L 728,275 L 730,273 L 730,272 L 731,271 L 731,270 L 732,269 L 732,267 L 733,266 L 733,259 L 732,258 L 733,257 L 735,257 L 736,258 L 737,258 L 738,257 L 739,257 L 742,254 L 742,253 L 743,252 L 743,251 L 744,250 L 744,249 L 751,242 L 752,242 L 753,241 L 759,241 L 760,242 L 764,242 L 765,243 L 767,243 L 769,241 L 768,240 L 768,236 L 767,235 L 767,233 L 766,232 L 766,230 L 765,229 L 765,228 L 764,227 L 764,225 L 763,224 L 763,222 L 762,221 L 762,219 L 761,218 L 761,215 L 760,214 L 760,212 L 759,211 L 759,201 L 758,200 L 758,199 L 760,197 L 760,196 L 761,195 L 761,194 L 762,193 L 762,192 L 763,191 L 763,190 L 764,189 L 764,188 L 761,188 L 760,187 L 757,187 L 756,186 L 752,186 L 751,185 L 748,185 L 747,184 L 743,184 L 742,183 L 739,183 L 738,182 L 735,182 L 734,181 L 731,181 L 730,180 L 727,180 L 726,179 L 723,179 L 722,178 L 719,178 L 718,177 L 716,177 L 715,176 L 712,176 L 711,175 L 708,175 L 707,174 L 705,174 L 704,173 L 702,173 L 701,172 L 698,172 L 697,171 L 695,171 L 694,170 L 692,170 L 691,169 L 689,169 L 688,168 L 685,168 L 684,167 L 683,167 L 682,166 L 679,166 L 678,165 L 677,165 L 676,164 L 674,164 L 673,163 L 671,163 L 670,162 L 668,162 L 667,161 L 665,161 L 664,160 L 662,160 L 661,159 L 660,159 L 659,158 L 657,158 L 656,157 L 655,157 L 654,156 L 652,156 L 651,155 L 650,155 L 649,154 L 647,154 L 646,153 L 645,153 L 644,152 L 643,152 L 642,151 L 640,151 L 639,150 L 638,150 L 637,149 L 636,149 L 635,148 L 634,148 L 633,147 L 631,147 L 631,149 L 630,150 L 630,155 L 629,156 L 629,161 L 628,162 L 628,166 L 627,167 L 627,178 L 628,179 L 628,181 L 631,184 L 632,184 L 633,185 L 634,185 L 635,186 L 634,187 L 634,189 L 633,190 L 633,191 L 626,198 L 625,198 L 624,199 L 623,199 L 621,201 L 619,201 L 618,202 L 617,202 L 616,203 L 614,203 L 613,204 L 611,204 L 610,205 L 604,205 L 603,206 L 603,210 L 602,211 L 602,213 L 596,219 L 594,219 L 593,220 L 590,220 L 589,221 L 578,221 L 577,220 L 562,220 L 561,221 L 561,222 L 559,224 L 558,224 L 557,225 L 556,225 L 555,226 L 544,226 L 543,225 L 539,225 L 538,224 L 536,224 L 535,223 L 534,223 L 533,222 L 531,222 L 530,221 L 529,221 L 528,220 L 526,220 L 525,219 L 523,219 L 522,220 L 521,220 L 520,221 L 519,221 L 518,222 L 517,222 L 516,223 L 515,223 L 514,224 L 513,224 L 511,226 L 510,226 L 509,227 L 508,227 L 506,229 L 505,229 L 504,230 L 503,230 L 501,232 L 500,232 L 499,233 L 498,233 L 496,235 L 495,235 L 494,236 L 493,236 L 492,237 L 491,237 L 489,239 L 488,239 L 487,240 L 486,240 L 485,241 L 484,241 L 482,243 L 481,243 L 480,244 L 479,244 L 478,245 L 477,245 L 476,246 L 475,246 L 473,248 L 472,248 L 471,249 L 470,249 L 469,250 L 468,250 L 466,252 L 465,252 L 464,253 L 463,253 L 462,254 L 461,254 L 460,253 L 462,251 L 463,251 L 468,246 L 469,246 L 472,243 L 473,243 L 476,240 L 477,240 L 479,238 L 480,238 L 483,235 L 484,235 L 485,234 L 486,234 L 488,232 L 489,232 L 491,230 L 492,230 L 494,228 L 495,228 L 497,226 L 498,226 L 500,224 L 501,224 L 503,222 L 504,222 L 506,220 L 507,220 L 508,219 L 509,219 L 511,217 L 512,217 L 513,216 L 514,216 L 515,215 L 516,215 L 517,214 L 518,214 L 519,213 L 520,213 L 521,212 L 526,212 L 527,213 L 529,213 L 530,214 L 532,214 L 533,215 L 535,215 L 536,216 L 539,216 L 540,217 L 543,217 L 544,218 L 554,218 L 558,214 L 558,213 L 560,211 L 562,211 L 563,212 L 568,212 L 569,213 L 575,213 L 576,214 L 581,214 L 582,215 L 587,215 L 588,214 L 590,214 L 591,213 L 592,213 L 593,212 L 594,212 L 594,211 L 595,210 L 595,209 L 596,208 L 596,204 L 595,203 L 595,201 L 594,200 L 594,199 L 593,198 L 593,197 L 588,192 L 587,192 L 585,190 L 584,190 L 583,189 L 582,189 L 581,188 L 579,188 L 578,187 L 577,187 L 576,186 L 575,186 L 574,185 L 573,185 L 572,184 L 572,181 L 571,180 L 571,173 L 570,172 L 570,169 L 569,168 L 569,167 L 566,164 L 565,164 L 564,163 L 563,163 L 562,162 L 559,162 L 558,163 L 557,163 L 553,167 L 553,168 L 551,170 L 551,171 L 550,172 L 550,173 L 549,174 L 549,175 L 548,176 L 548,177 L 547,178 L 547,180 L 546,181 L 546,182 L 545,183 L 545,185 L 544,186 L 544,188 L 543,189 L 543,190 L 542,191 L 542,193 L 541,194 L 541,195 L 540,196 L 540,197 L 539,198 L 539,199 L 538,200 L 538,201 L 537,202 L 537,203 L 536,204 L 535,204 L 534,203 L 534,200 L 533,199 L 534,198 L 534,197 L 535,196 L 535,195 L 536,194 L 536,193 L 537,192 L 537,191 L 538,190 L 538,189 L 539,188 L 539,186 L 540,185 L 540,184 L 541,183 L 541,182 L 542,181 L 542,180 L 543,179 L 543,177 L 544,176 L 544,175 L 545,174 L 545,172 L 546,171 L 546,169 L 547,168 L 547,166 L 548,165 L 548,163 L 549,162 L 549,159 L 550,158 L 550,155 L 549,154 L 549,153 L 548,152 L 548,151 L 545,148 L 544,148 L 543,147 L 538,147 L 537,148 L 536,148 L 536,149 L 534,151 L 533,151 L 532,150 L 532,146 L 531,145 L 531,144 L 528,141 L 526,141 L 525,140 L 522,140 L 520,142 L 519,142 L 518,143 L 517,143 L 516,142 L 516,137 L 515,136 L 515,135 L 512,132 L 511,132 L 510,131 L 506,131 L 505,132 L 502,132 L 501,133 L 499,133 L 498,134 L 496,134 L 493,137 L 491,137 L 490,136 L 489,136 L 488,135 L 486,135 L 485,134 L 483,134 L 482,133 L 480,133 L 479,132 L 477,132 L 476,131 L 475,131 L 474,130 L 472,130 L 471,129 L 469,129 L 468,128 L 466,128 L 465,127 L 463,127 L 462,126 L 460,126 L 459,125 L 457,125 L 456,124 L 452,124 Z M 678,83 L 677,84 L 671,84 L 670,85 L 667,85 L 666,86 L 663,86 L 662,87 L 659,87 L 658,88 L 656,88 L 655,89 L 653,89 L 652,90 L 650,90 L 649,91 L 648,91 L 647,92 L 646,92 L 645,93 L 643,93 L 642,94 L 641,94 L 640,95 L 639,95 L 638,96 L 637,96 L 635,98 L 634,98 L 633,99 L 632,99 L 630,101 L 629,101 L 627,103 L 626,103 L 624,105 L 623,105 L 614,114 L 614,115 L 613,116 L 613,123 L 614,124 L 614,125 L 615,126 L 615,127 L 624,136 L 625,136 L 628,139 L 629,139 L 630,140 L 631,140 L 632,141 L 633,141 L 634,142 L 635,142 L 636,143 L 638,143 L 639,144 L 640,144 L 641,145 L 643,145 L 644,146 L 645,146 L 646,147 L 648,147 L 649,148 L 650,148 L 651,149 L 653,149 L 654,150 L 656,150 L 657,151 L 658,151 L 659,152 L 661,152 L 662,153 L 664,153 L 665,154 L 667,154 L 668,155 L 670,155 L 671,156 L 673,156 L 674,157 L 676,157 L 677,158 L 679,158 L 680,159 L 682,159 L 683,160 L 685,160 L 686,161 L 689,161 L 690,162 L 692,162 L 693,163 L 695,163 L 696,164 L 699,164 L 700,165 L 702,165 L 703,166 L 706,166 L 707,167 L 709,167 L 710,168 L 713,168 L 714,169 L 717,169 L 718,170 L 721,170 L 722,171 L 724,171 L 725,172 L 728,172 L 729,173 L 732,173 L 733,174 L 736,174 L 737,175 L 740,175 L 741,176 L 744,176 L 745,177 L 748,177 L 749,178 L 753,178 L 754,179 L 758,179 L 759,180 L 762,180 L 763,181 L 767,181 L 768,182 L 777,182 L 778,181 L 779,181 L 780,180 L 780,179 L 781,178 L 781,177 L 782,176 L 782,159 L 781,158 L 781,152 L 780,151 L 780,147 L 779,146 L 779,144 L 778,143 L 778,141 L 777,140 L 777,138 L 776,137 L 776,135 L 775,134 L 775,133 L 774,132 L 774,131 L 773,130 L 773,129 L 772,128 L 772,127 L 771,126 L 771,125 L 770,124 L 770,123 L 768,121 L 768,120 L 766,118 L 766,117 L 754,105 L 753,105 L 750,102 L 749,102 L 747,100 L 746,100 L 745,99 L 744,99 L 742,97 L 741,97 L 740,96 L 739,96 L 738,95 L 737,95 L 736,94 L 735,94 L 734,93 L 733,93 L 732,92 L 730,92 L 729,91 L 728,91 L 727,90 L 725,90 L 724,89 L 722,89 L 721,88 L 719,88 L 718,87 L 715,87 L 714,86 L 711,86 L 710,85 L 706,85 L 705,84 L 700,84 L 699,83 Z " fill="black"/>
</svg>